<svg xmlns="http://www.w3.org/2000/svg" xmlns:xlink="http://www.w3.org/1999/xlink" width="100" height="100" viewBox="0 0 100 100"><g><circle stroke="none" fill="#FFFFFF" r="48%" cx="50%" cy="50%"></circle><g transform="translate(50 50) scale(0.69 0.69) rotate(0) translate(-50 -50)" style="fill:#0059B3;"><svg fill="#0059B3" xmlns="http://www.w3.org/2000/svg" data-name="Layer 1" viewBox="0 0 100 100" x="0px" y="0px"><title>Hippopotamus</title><path d="M90.92,34.38c-5.15-9.43-18.51-10.84-26-10.84a47.19,47.19,0,0,0-4.86.22l-2.42.31c-4.33.58-12.39,1.66-16.15,1.66-5,0-11.14,1.83-14.89,3.4a11.76,11.76,0,0,1-4.46,1.07h-.36A4.56,4.56,0,0,0,18.47,29a7,7,0,0,0-4.15,1.28A1.55,1.55,0,0,0,13.62,32c.19.7,1,1.24,2.31,1.63a11.64,11.64,0,0,1-1.3.49,5.48,5.48,0,0,0-3.41,3.19,5.39,5.39,0,0,0-.08,4.37c.6,1.2-.44,4.71-3,6.92-3.52,3-5.44,6.17-6.05,10.06-.41,2.6,0,4.67,1.09,6a4.6,4.6,0,0,0,3.63,1.54A15.83,15.83,0,0,0,10,65.83a5.92,5.92,0,0,1,2.5-.11c.44.1.95.25,1.51.42a17.26,17.26,0,0,0,4.95,1,7.44,7.44,0,0,0,2.19-.31c2.42-.74,4.88-4.36,6.05-6.32.12.11.25.19.38.29V75.5a1,1,0,0,0,1,1H30a1,1,0,0,0,.52.31,1,1,0,0,0,1-.31h1a1,1,0,0,0,1.49,0H37.5a1,1,0,0,0,1-1v-12c.5,0,.95,0,1.31-.08V75.5a1,1,0,0,0,1,1h1.47a1,1,0,0,0,1.49,0h1a1,1,0,0,0,1.49,0h3.35a1,1,0,0,0,1-1V66.23a47.64,47.64,0,0,0,10.5,1.13V75.5a1,1,0,0,0,1,1h1.45a1,1,0,0,0,.52.31,1,1,0,0,0,1-.31h1a1,1,0,0,0,.52.31,1,1,0,0,0,1-.31h3.33a1,1,0,0,0,1-1V66.37c.68-.13,1.27-.25,1.73-.36V75.5a1,1,0,0,0,1,1H76a1,1,0,0,0,.52.31,1,1,0,0,0,1-.31h1a1,1,0,0,0,1.49,0h3.46a1,1,0,0,0,1-1l-.21-12.07a20.07,20.07,0,0,0,7.51-6.7,82.06,82.06,0,0,0,3.79,7.85,1,1,0,0,0,1.88-.47C97.42,63.38,97.56,46.55,90.92,34.38ZM34.64,74.5,35,72.87,33.15,74.5h-1l.35-1.64L30.63,74.5H29.55V62a17.83,17.83,0,0,0,7,1.49v11Zm35.28,0H68.21l.36-1.64L66.71,74.5h-1L66,72.87,64.2,74.5H63.14V67.33a59.09,59.09,0,0,0,6.78-.62ZM93,54.15a1,1,0,0,0-1.85-.21c0,.06-3.2,5.86-8.28,7.89a1,1,0,0,0-.63.95l.2,11.73H80.6L81,72.87,79.11,74.5h-1l.35-1.64L76.59,74.5h-.93V64.74a1,1,0,0,0-1.27-1,54,54,0,0,1-13.15,1.59A44.79,44.79,0,0,1,49.9,64a1,1,0,0,0-1.25,1V74.5H46.91l.36-1.64L45.41,74.5h-1l.35-1.64L42.89,74.5H41.82V62.32a1,1,0,0,0-1.15-1,23.84,23.84,0,0,1-3.1.21h-.13c-3.21,0-7.5-.58-9.66-3.35a1,1,0,0,0-1.63.09V54a1.14,1.14,0,0,0,0-.22,2.78,2.78,0,0,1,1.4-2.89c2.33-1.49,3.54-2.76,2.83-4.9a1,1,0,0,0-1.9.63c.2.6.36,1.07-2,2.58a4.79,4.79,0,0,0-2.3,4.89v7.38c-1.17,1.62-2.53,3.11-3.6,3.44a5.45,5.45,0,0,1-1.6.22,15.48,15.48,0,0,1-4.37-.88c-.61-.19-1.17-.36-1.66-.46a8,8,0,0,0-3.31.1,13.78,13.78,0,0,1-2.84.32,2.63,2.63,0,0,1-2.11-.84C3.92,62.48,3.7,61,4,59c.54-3.43,2.2-6.16,5.37-8.84,3-2.56,4.71-7,3.54-9.34a3.47,3.47,0,0,1,.13-2.69A3.56,3.56,0,0,1,15.22,36c3-.94,3.9-2.18,4-2.42a1,1,0,0,0-.73-1.51,14.05,14.05,0,0,1-2.44-.53A5.6,5.6,0,0,1,18.47,31a2.52,2.52,0,0,1,2,.65,1,1,0,0,0,.57.39c.18,0,2.4.53,6.34-1.12,3.57-1.5,9.42-3.24,14.12-3.24,3.89,0,12-1.09,16.41-1.68l2.37-.31c.69-.08,2.44-.21,4.64-.21,7.06,0,19.61,1.27,24.26,9.8,4.38,8,5.69,18.48,6.08,24.31A35.81,35.81,0,0,1,93,54.15Z"></path><path d="M35.11,39a1,1,0,0,0-.46,1.34c0,.07,3.39,7.1,1,12.07-1.09,2.27-3.27,3.8-6.48,4.54a1,1,0,0,0,.22,2l.22,0c3.84-.88,6.48-2.77,7.84-5.62,2.79-5.83-.86-13.48-1-13.8A1,1,0,0,0,35.11,39Z"></path><path d="M37.72,28.83c-2.1-.46-4.67,1.54-5.64,2.39H29.39a1,1,0,0,0,0,2h3.08a1,1,0,0,0,.68-.27c1.11-1,3.12-2.39,4.14-2.17.13,0,.2.06.2,0,0,.29-.79,1.26-2.73,1.5a1,1,0,0,0,.12,2H35c2.85-.36,4.42-2,4.48-3.4A2.05,2.05,0,0,0,37.72,28.83Z"></path><ellipse cx="16.21" cy="41.67" rx="1.1" ry="1.76"></ellipse><ellipse cx="26.17" cy="41.67" rx="1.1" ry="1.76"></ellipse><path d="M15.47,56a1.45,1.45,0,0,0-.65.79,1,1,0,0,0,.29,1.15,1.86,1.86,0,0,1,.89-.12.82.82,0,0,0,.46-.09,1.31,1.31,0,0,0,.41-.41,3.6,3.6,0,0,0,.44-.93,1.6,1.6,0,0,0-.94-.57A1.34,1.34,0,0,0,15.47,56Z"></path><path d="M7.31,56.2A1.05,1.05,0,0,0,6.59,56a1.6,1.6,0,0,0-.93.41,3,3,0,0,0,.14,1,.93.93,0,0,0,.29.44.69.69,0,0,0,.45.12,2.79,2.79,0,0,1,.87,0,1,1,0,0,0,.32-1A1.2,1.2,0,0,0,7.31,56.2Z"></path></svg></g></g></svg>